<svg xmlns="http://www.w3.org/2000/svg" width="1280" height="720" viewBox="0 0 1280 720">
  <rect width="1280" height="720" fill="#f4f6f8"/>
  <rect width="1280" height="58" fill="#213843"/>
  <text x="32" y="37" fill="#fff" font-family="Segoe UI, Arial" font-size="22" font-weight="700">MO Studio Builder</text>
  <rect x="1130" y="12" width="100" height="34" rx="7" fill="#6f4566"/>
  <text x="1154" y="35" fill="#fff" font-family="Segoe UI, Arial" font-size="16" font-weight="700">Studio</text>
  <rect x="0" y="58" width="190" height="662" fill="#17212b"/>
  <text x="26" y="102" fill="#fff" font-family="Segoe UI, Arial" font-size="17">Studio Builder</text>
  <rect x="215" y="92" width="190" height="584" fill="#22303a"/>
  <text x="238" y="128" fill="#d8e6ed" font-family="Segoe UI, Arial" font-size="14" font-weight="700">COMPONENTS</text>
  <g font-family="Segoe UI, Arial" font-size="14" font-weight="700" fill="#17212b">
    <rect x="238" y="154" width="68" height="34" fill="#f5f8fa"/><text x="252" y="177">Text</text>
    <rect x="318" y="154" width="68" height="34" fill="#f5f8fa"/><text x="327" y="177">Date</text>
    <rect x="238" y="200" width="68" height="34" fill="#f5f8fa"/><text x="245" y="223">HTML</text>
    <rect x="318" y="200" width="68" height="34" fill="#f5f8fa"/><text x="325" y="223">Select</text>
    <rect x="238" y="246" width="68" height="34" fill="#f5f8fa"/><text x="248" y="269">Image</text>
    <rect x="318" y="246" width="68" height="34" fill="#f5f8fa"/><text x="330" y="269">File</text>
  </g>
  <rect x="430" y="92" width="600" height="584" fill="#fff" stroke="#d9e2ea"/>
  <text x="460" y="132" fill="#6f4566" font-family="Segoe UI, Arial" font-size="17" font-weight="800">FORM PREVIEW</text>
  <text x="460" y="172" fill="#17212b" font-family="Segoe UI, Arial" font-size="30" font-weight="800">Request Approval</text>
  <g font-family="Segoe UI, Arial" font-size="16">
    <text x="480" y="240" fill="#17212b" font-weight="700">Customer</text><line x1="650" y1="240" x2="960" y2="240" stroke="#cdd9e2" stroke-width="3"/>
    <rect x="480" y="265" width="500" height="30" fill="none" stroke="#9fc6da" stroke-dasharray="4 4"/><text x="660" y="286" fill="#8aa6b8" font-size="13">Drop after Customer</text>
    <text x="480" y="340" fill="#17212b" font-weight="700">Status</text><line x1="650" y1="340" x2="960" y2="340" stroke="#cdd9e2" stroke-width="3"/>
    <rect x="480" y="365" width="500" height="58" fill="#edf8fb" stroke="#8ec7df"/><text x="500" y="399" fill="#17212b" font-weight="700">Approval Status</text>
    <text x="480" y="484" fill="#17212b" font-weight="700">Notes</text><line x1="650" y1="484" x2="960" y2="484" stroke="#cdd9e2" stroke-width="3"/>
  </g>
  <rect x="1050" y="92" width="200" height="584" fill="#fff" stroke="#d9e2ea"/>
  <text x="1072" y="132" fill="#6f4566" font-family="Segoe UI, Arial" font-size="15" font-weight="800">PROPERTIES</text>
  <text x="1072" y="184" fill="#17212b" font-family="Segoe UI, Arial" font-size="14">Label</text>
  <rect x="1072" y="200" width="150" height="32" rx="4" fill="#fff" stroke="#c5d2db"/>
  <text x="1082" y="222" fill="#5d6b7a" font-family="Segoe UI, Arial" font-size="13">Approval Status</text>
  <text x="1072" y="272" fill="#17212b" font-family="Segoe UI, Arial" font-size="14">Options</text>
  <rect x="1072" y="288" width="150" height="92" rx="4" fill="#fff" stroke="#c5d2db"/>
  <text x="1082" y="314" fill="#5d6b7a" font-family="Segoe UI, Arial" font-size="13">draft:Draft</text>
  <text x="1082" y="340" fill="#5d6b7a" font-family="Segoe UI, Arial" font-size="13">approved:Approved</text>
  <rect x="1072" y="420" width="150" height="38" rx="6" fill="#6f4566"/>
  <text x="1094" y="445" fill="#fff" font-family="Segoe UI, Arial" font-size="14" font-weight="700">Save Properties</text>
</svg>
