<svg xmlns="http://www.w3.org/2000/svg" width="512" height="512" viewBox="0 0 512 512">
  <defs>
    <linearGradient id="bg" x1="0" y1="0" x2="1" y2="1">
      <stop offset="0" stop-color="#8a4f7d"/>
      <stop offset="1" stop-color="#42183e"/>
    </linearGradient>
    <filter id="softShadow" x="-20%" y="-20%" width="140%" height="140%">
      <feDropShadow dx="0" dy="16" stdDeviation="14" flood-color="#2b1028" flood-opacity=".38"/>
    </filter>
  </defs>
  <rect x="28" y="28" width="456" height="456" rx="92" fill="url(#bg)"/>
  <rect x="48" y="48" width="416" height="416" rx="76" fill="none" stroke="#fff" stroke-opacity=".08" stroke-width="5"/>
  <g filter="url(#softShadow)">
    <path d="M153 392 350 195" stroke="#fff" stroke-width="48" stroke-linecap="round"/>
    <path d="M321 224 362 183" stroke="#fff" stroke-width="63" stroke-linecap="round"/>
    <path d="M306 239 343 202" stroke="#00a09d" stroke-width="16" stroke-linecap="round"/>
  </g>
  <path d="M239 82 260 138 316 159 260 180 239 236 218 180 162 159 218 138z" fill="#fff"/>
  <path d="M392 133 406 170 443 184 406 198 392 235 378 198 341 184 378 170z" fill="#00c8c4"/>
  <path d="M117 220 130 254 164 267 130 280 117 314 104 280 70 267 104 254z" fill="#fff"/>
  <path d="M358 347 371 381 405 394 371 407 358 441 345 407 311 394 345 381z" fill="#fff"/>
</svg>
